<?xml version="1.0" standalone="no"?>
<!DOCTYPE svg PUBLIC "-//W3C//DTD SVG 20010904//EN"
 "http://www.w3.org/TR/2001/REC-SVG-20010904/DTD/svg10.dtd">
<svg version="1.0" xmlns="http://www.w3.org/2000/svg"
 width="16.000000pt" height="16.000000pt" viewBox="0 0 16.000000 16.000000"
 preserveAspectRatio="xMidYMid meet">
<metadata>
Created by potrace 1.11, written by Peter Selinger 2001-2013
</metadata>
<g transform="translate(0.000000,16.000000) scale(0.001951,-0.001951)"
fill="#000000" stroke="none">
<path d="M3845 8194 c-750 -57 -1385 -268 -1988 -661 -939 -610 -1592 -1592
-1791 -2693 -48 -268 -60 -413 -60 -740 0 -399 26 -627 115 -989 139 -568 409
-1111 785 -1581 139 -174 451 -486 624 -624 931 -743 2106 -1043 3285 -840
563 98 1100 316 1585 645 446 303 806 666 1108 1117 605 902 822 2007 607
3087 -127 637 -407 1236 -821 1755 -138 173 -450 485 -624 624 -145 116 -419
302 -565 383 -486 271 -981 430 -1550 499 -123 15 -595 27 -710 18z m2188
-1651 c125 -339 226 -618 224 -620 -2 -1 -861 -2 -1909 -1 l-1906 3 1667 617
c916 339 1673 617 1681 617 11 1 78 -168 243 -616z m1122 -2853 l0 -1995
-2847 -3 -2848 -2 0 2000 0 2000 2848 -2 2847 -3 0 -1995z m-5936 613 c0 -981
-3 -1162 -14 -1133 -7 19 -178 480 -379 1025 -279 753 -364 992 -354 998 14 9
728 275 741 276 4 1 7 -524 6 -1166z"/>
<path d="M6050 5094 c-138 -24 -210 -53 -268 -108 -46 -43 -62 -77 -62 -131 0
-112 85 -178 313 -244 128 -37 161 -53 183 -86 24 -37 4 -77 -49 -101 -58 -26
-222 -24 -331 5 -44 12 -81 20 -82 18 -5 -5 -53 -141 -50 -144 11 -11 148 -36
228 -42 260 -17 454 36 527 144 35 51 40 129 12 183 -37 73 -108 113 -291 167
-175 51 -204 69 -198 121 2 20 14 34 38 49 30 17 52 20 145 19 68 0 132 -6
166 -16 l57 -16 27 70 c15 38 25 72 22 75 -24 23 -310 51 -387 37z"/>
<path d="M2120 4675 l0 -405 122 0 121 0 -6 301 c-3 166 -2 297 3 293 4 -5 34
-49 67 -99 33 -49 131 -181 217 -292 l157 -203 140 0 139 0 0 405 0 405 -121
0 -122 0 6 -257 c4 -142 9 -274 12 -293 6 -34 5 -33 -27 19 -56 91 -135 199
-270 369 l-130 162 -154 0 -154 0 0 -405z"/>
<path d="M3310 4675 l0 -405 365 0 365 0 0 70 0 70 -237 2 -238 3 -3 98 -3 97
216 0 215 0 0 75 0 75 -212 2 -213 3 0 85 0 85 228 3 227 2 0 70 0 70 -355 0
-355 0 0 -405z"/>
<path d="M4150 5077 c0 -4 257 -770 265 -789 6 -16 23 -18 149 -18 l143 0 71
233 c40 127 79 264 89 302 l17 70 14 -65 c13 -63 112 -442 133 -508 l11 -33
141 3 142 3 146 403 146 402 -131 0 -131 0 -58 -207 c-31 -115 -67 -252 -79
-306 -12 -53 -24 -94 -28 -90 -3 5 -12 37 -19 73 -6 36 -39 170 -73 298 l-61
233 -141 -3 -140 -3 -44 -150 c-24 -82 -63 -222 -86 -310 -26 -95 -45 -151
-49 -140 -3 11 -38 152 -78 313 l-73 292 -138 0 c-76 0 -138 -1 -138 -3z"/>
<path d="M1990 3655 l0 -105 1045 0 1045 0 0 105 0 105 -1045 0 -1045 0 0
-105z"/>
<path d="M4540 3655 l0 -105 1040 0 1040 0 0 105 0 105 -1040 0 -1040 0 0
-105z"/>
<path d="M1990 3170 l0 -100 1045 0 1045 0 0 100 0 100 -1045 0 -1045 0 0
-100z"/>
<path d="M4540 3170 l0 -100 1040 0 1040 0 0 100 0 100 -1040 0 -1040 0 0
-100z"/>
<path d="M1990 2690 l0 -100 1045 0 1045 0 0 100 0 100 -1045 0 -1045 0 0
-100z"/>
<path d="M4540 2690 l0 -100 1040 0 1040 0 0 100 0 100 -1040 0 -1040 0 0
-100z"/>
<path d="M1990 2200 l0 -100 1045 0 1045 0 0 100 0 100 -1045 0 -1045 0 0
-100z"/>
<path d="M4540 2200 l0 -100 1040 0 1040 0 0 100 0 100 -1040 0 -1040 0 0
-100z"/>
</g>
</svg>
